<?xml version="1.0" encoding="utf-8"?>
<!-- Generator: Adobe Illustrator 18.0.0, SVG Export Plug-In . SVG Version: 6.00 Build 0)  -->
<!DOCTYPE svg PUBLIC "-//W3C//DTD SVG 1.1//EN" "http://www.w3.org/Graphics/SVG/1.1/DTD/svg11.dtd">
<svg version="1.1" xmlns="http://www.w3.org/2000/svg" xmlns:xlink="http://www.w3.org/1999/xlink" x="0px" y="0px"
	 viewBox="0 0 32 32" enable-background="new 0 0 32 32" xml:space="preserve">
<g id="Layer_1">
</g>
<g id="Layer_2">
</g>
<g id="Layer_3">
</g>
<g id="Layer_4">
</g>
<g id="Layer_5">
</g>
<g id="Layer_6">
</g>
<g id="Layer_7">
</g>
<g id="Layer_8">
</g>
<g id="Layer_9">
</g>
<g id="Layer_10">
</g>
<g id="Layer_11">
</g>
<g id="Layer_12">
</g>
<g id="Layer_13">
</g>
<g id="Layer_14">
</g>
<g id="Layer_15">
</g>
<g id="Layer_16">
</g>
<g id="Layer_17">
</g>
<g id="Layer_18">
</g>
<g id="Layer_19">
</g>
<g id="Layer_20">
</g>
<g id="Layer_21">
</g>
<g id="Layer_22">
</g>
<g id="Layer_23">
</g>
<g id="Layer_24">
</g>
<g id="Layer_25">
</g>
<g id="Layer_26">
</g>
<g id="Layer_27">
</g>
<g id="Layer_28">
</g>
<g id="Layer_29">
</g>
<g id="Layer_30">
</g>
<g id="Layer_31">
</g>
<g id="Layer_32">
</g>
<g id="Layer_33">
</g>
<g id="Layer_34">
	<g>
		
			<circle fill="#007500" stroke="#FFFFFF" stroke-width="2" stroke-linejoin="round" stroke-miterlimit="10" cx="16" cy="16" r="15"/>
		<rect x="8" y="24" fill="#FFFFFF" width="16" height="1"/>
		<polygon fill="#FFFFFF" points="23,24 24,24 24,13 23,12 		"/>
		<rect x="8" y="13" fill="#FFFFFF" width="1" height="11"/>
		<g>
			<g>
				<circle fill="#FFFFFF" cx="12" cy="13.8" r="1.8"/>
				<path fill="#FFFFFF" d="M13,17.9c0-0.6,0-1,1-1.2v-0.2c0-0.3-0.5-0.4-0.8-0.4h-1.6c-0.3,0-0.6,0.1-0.6,0.4v3.3
					c0,0.3,0.2,0.3,0.6,0.3h0.1h1.2C12.9,20,13,17.8,13,17.9z"/>
				<circle fill="#FFFFFF" cx="20.1" cy="13.8" r="1.7"/>
				<path fill="#FFFFFF" d="M20.3,20h0.1c0.3,0,0.6-0.3,0.6-0.7v-2.9c0-0.3-0.3-0.4-0.6-0.4h-1.6c-0.3,0-0.7,0.1-0.7,0.4v0.2
					c1,0.2,1,0.7,1,1.3v2H20.3z"/>
				<circle fill="#FFFFFF" cx="16" cy="15.1" r="1.8"/>
			</g>
			<circle fill="#FFFFFF" cx="16" cy="11.8" r="1.7"/>
		</g>
		<rect x="14.6" y="18" fill="#FFFFFF" width="3" height="5"/>
		<polygon fill="#FFFFFF" points="8,14 6,14 16,5 26,14 24,14 16,7 		"/>
	</g>
</g>
<g id="Layer_35">
</g>
<g id="Layer_36">
</g>
<g id="Layer_37">
</g>
<g id="Layer_38">
</g>
<g id="Layer_39">
</g>
<g id="Layer_40">
</g>
<g id="Layer_41">
</g>
<g id="Layer_42">
</g>
<g id="Layer_43">
</g>
<g id="Layer_44">
</g>
<g id="Layer_45">
</g>
<g id="Layer_46">
</g>
<g id="Layer_47">
</g>
<g id="Layer_48">
</g>
<g id="Layer_49">
</g>
<g id="Layer_50">
</g>
<g id="Layer_51">
</g>
<g id="Layer_52">
</g>
<g id="Layer_53">
</g>
<g id="Layer_54">
</g>
<g id="Layer_55">
</g>
<g id="Layer_56">
</g>
<g id="Layer_57">
</g>
<g id="Layer_58">
</g>
<g id="Layer_59">
</g>
<g id="Layer_60">
</g>
<g id="Layer_61">
</g>
</svg>
