<?xml version="1.0" encoding="utf-8"?>
<!-- Generator: Adobe Illustrator 18.0.0, SVG Export Plug-In . SVG Version: 6.00 Build 0)  -->
<!DOCTYPE svg PUBLIC "-//W3C//DTD SVG 1.1//EN" "http://www.w3.org/Graphics/SVG/1.1/DTD/svg11.dtd">
<svg version="1.1" xmlns="http://www.w3.org/2000/svg" xmlns:xlink="http://www.w3.org/1999/xlink" x="0px" y="0px"
	 viewBox="0 0 32 32" enable-background="new 0 0 32 32" xml:space="preserve">
<g id="Layer_1">
</g>
<g id="Layer_2">
</g>
<g id="Layer_3">
</g>
<g id="Layer_4">
</g>
<g id="Layer_5">
</g>
<g id="Layer_6">
</g>
<g id="Layer_7">
</g>
<g id="Layer_8">
</g>
<g id="Layer_9">
</g>
<g id="Layer_10">
</g>
<g id="Layer_11">
</g>
<g id="Layer_12">
</g>
<g id="Layer_13">
</g>
<g id="Layer_14">
</g>
<g id="Layer_15">
</g>
<g id="Layer_16">
</g>
<g id="Layer_17">
</g>
<g id="Layer_18">
</g>
<g id="Layer_19">
</g>
<g id="Layer_20">
</g>
<g id="Layer_21">
</g>
<g id="Layer_22">
	<g>
		<g>
			<path fill="#FFFFFF" d="M16,31.5c-0.1,0-0.3,0-0.4-0.1l-15-15c-0.2-0.2-0.2-0.5,0-0.7l15-15c0.1-0.1,0.2-0.1,0.4-0.1
				s0.3,0,0.4,0.1l15,15c0.2,0.2,0.2,0.5,0,0.7l-15,15C16.3,31.5,16.1,31.5,16,31.5z"/>
		</g>
		<path d="M31.7,15.3l-15-15C16.5,0.1,16.3,0,16,0s-0.5,0.1-0.7,0.3l-15,15c-0.4,0.4-0.4,1,0,1.4l15,15c0.2,0.2,0.5,0.3,0.7,0.3
			s0.5-0.1,0.7-0.3l15-15C32.1,16.3,32.1,15.7,31.7,15.3z M22.8,24.2c-0.2,0.1-0.4,0.3-0.5,0.4c-0.4,0.4-0.8,0.7-1.8,0.7
			c-1,0-1.4-0.3-1.8-0.7c-0.5-0.5-1.2-1-2.7-1s-2.1,0.6-2.7,1c-0.4,0.4-0.8,0.7-1.8,0.7c-1,0-1.4-0.3-1.8-0.7c0,0,0,0,0,0l-3.5-3.5
			c0.1,0,0.3,0,0.4,0c1,0,1.3,0.3,1.7,0.7c0.5,0.5,1.2,1.1,2.8,1.1s2.3-0.6,2.8-1.1c0.4-0.4,0.8-0.7,1.7-0.7c1,0,1.3,0.3,1.7,0.7
			c0.5,0.5,1.2,1.1,2.8,1.1c1.6,0,2.3-0.6,2.8-1.1c0.4-0.4,0.8-0.7,1.7-0.7c0.5,0,0.8,0.1,1,0.2L22.8,24.2z M17,19.8
			c0-0.1-0.8-0.2-1.4-0.2c-0.2,0-0.6,0-0.6,0V17h2V19.8z M26.8,20.2c-0.5-0.3-1.1-0.6-2.1-0.6c-1.5,0-1.7,0.6-2.7,1V16h2h0.5
			L24,15.5l-8-8l-3,3V8h-2v4.5l-3,3L7.5,16H8h2v5.2c0-0.1-0.5-0.3-0.7-0.5c-0.5-0.5-1.2-1-2.7-1c-0.7,0-1.2,0.1-1.6,0.3L1,16L16,1
			l15,15L26.8,20.2z"/>
	</g>
</g>
<g id="Layer_23">
</g>
<g id="Layer_24">
</g>
<g id="Layer_25">
</g>
<g id="Layer_26">
</g>
<g id="Layer_27">
</g>
<g id="Layer_28">
</g>
<g id="Layer_29">
</g>
<g id="Layer_30">
</g>
<g id="Layer_31">
</g>
<g id="Layer_32">
</g>
<g id="Layer_33">
</g>
<g id="Layer_34">
</g>
<g id="Layer_35">
</g>
<g id="Layer_36">
</g>
<g id="Layer_37">
</g>
<g id="Layer_38">
</g>
<g id="Layer_39">
</g>
<g id="Layer_40">
</g>
<g id="Layer_41">
</g>
<g id="Layer_42">
</g>
<g id="Layer_43">
</g>
<g id="Layer_44">
</g>
<g id="Layer_45">
</g>
<g id="Layer_46">
</g>
<g id="Layer_47">
</g>
<g id="Layer_48">
</g>
<g id="Layer_49">
</g>
<g id="Layer_50">
</g>
<g id="Layer_51">
</g>
<g id="Layer_52">
</g>
<g id="Layer_53">
</g>
<g id="Layer_54">
</g>
<g id="Layer_55">
</g>
<g id="Layer_56">
</g>
<g id="Layer_57">
</g>
<g id="Layer_58">
</g>
<g id="Layer_59">
</g>
<g id="Layer_60">
</g>
<g id="Layer_61">
</g>
</svg>
