<?xml version="1.0" encoding="utf-8"?>
<!-- Generator: Adobe Illustrator 18.0.0, SVG Export Plug-In . SVG Version: 6.00 Build 0)  -->
<!DOCTYPE svg PUBLIC "-//W3C//DTD SVG 1.1//EN" "http://www.w3.org/Graphics/SVG/1.1/DTD/svg11.dtd">
<svg version="1.1" xmlns="http://www.w3.org/2000/svg" xmlns:xlink="http://www.w3.org/1999/xlink" x="0px" y="0px"
	 viewBox="0 0 36 36" enable-background="new 0 0 36 36" xml:space="preserve">
<g id="Layer_1">
</g>
<g id="Layer_2">
</g>
<g id="Layer_3">
</g>
<g id="Layer_4">
</g>
<g id="Layer_5">
	<g>
		<g>
			<circle fill="#1E5DA7" cx="18" cy="18" r="17"/>
			<path fill="#FFFFFF" d="M18,36C8.2,36,0.1,28,0,18.2C-0.1,8.3,7.9,0.1,17.8,0L18,0c9.8,0,17.9,8,18,17.8
				c0.1,9.9-7.9,18.1-17.8,18.2L18,36z M18,2l-0.2,0C9,2.1,1.9,9.4,2,18.2C2.1,26.9,9.3,34,18,34l0.2,0C27,33.9,34.1,26.6,34,17.8
				C33.9,9.1,26.7,2,18,2z"/>
		</g>
		<g>
			<path fill="#FFFFFF" d="M19.9,10c1.1,0,1.6,0.7,1.6,1.6c0,1-0.9,2-2.1,2c-1,0-1.6-0.6-1.6-1.6C17.8,11.1,18.5,10,19.9,10z
				 M16.6,26c-0.8,0-1.5-0.5-0.9-2.8l1-4.1c0.2-0.7,0.2-0.9,0-0.9c-0.3,0-1.4,0.5-2,0.9l-0.4-0.7c2.1-1.7,4.4-2.8,5.4-2.8
				c0.8,0,1,1,0.6,2.6l-1.1,4.3c-0.2,0.8-0.1,1,0.1,1c0.3,0,1.1-0.3,1.9-1l0.5,0.7C19.7,25.2,17.5,26,16.6,26z"/>
		</g>
	</g>
</g>
<g id="Layer_6">
</g>
<g id="Layer_7">
</g>
<g id="Layer_8">
</g>
<g id="Layer_9">
</g>
<g id="Layer_10">
</g>
<g id="Layer_11">
</g>
<g id="Layer_12">
</g>
<g id="Layer_13">
</g>
<g id="Layer_14">
</g>
<g id="Layer_15">
</g>
<g id="Layer_16">
</g>
<g id="Layer_17">
</g>
<g id="Layer_18">
</g>
<g id="Layer_19">
</g>
<g id="Layer_20">
</g>
<g id="Layer_21">
</g>
<g id="Layer_22">
</g>
<g id="Layer_23">
</g>
<g id="Layer_24">
</g>
<g id="Layer_25">
</g>
<g id="Layer_26">
</g>
<g id="Layer_27">
</g>
<g id="Layer_28">
</g>
<g id="Layer_29">
</g>
<g id="Layer_30">
</g>
<g id="Layer_31">
</g>
<g id="Layer_32">
</g>
<g id="Layer_33">
</g>
<g id="Layer_34">
</g>
<g id="Layer_35">
</g>
<g id="Layer_36">
</g>
<g id="Layer_37">
</g>
<g id="Layer_38">
</g>
<g id="Layer_39">
</g>
<g id="Layer_40">
</g>
<g id="Layer_41">
</g>
<g id="Layer_42">
</g>
<g id="Layer_43">
</g>
<g id="Layer_44">
</g>
<g id="Layer_45">
</g>
<g id="Layer_46">
</g>
<g id="Layer_47">
</g>
<g id="Layer_48">
</g>
<g id="Layer_49">
</g>
<g id="Layer_50">
</g>
<g id="Layer_51">
</g>
<g id="Layer_52">
</g>
<g id="Layer_53">
</g>
<g id="Layer_54">
</g>
<g id="Layer_55">
</g>
<g id="Layer_56">
</g>
<g id="Layer_57">
</g>
<g id="Layer_58">
</g>
<g id="Layer_59">
</g>
<g id="Layer_60">
</g>
<g id="Layer_61">
</g>
</svg>
