<?xml version="1.0" encoding="utf-8"?>
<!-- Generator: Adobe Illustrator 18.0.0, SVG Export Plug-In . SVG Version: 6.00 Build 0)  -->
<!DOCTYPE svg PUBLIC "-//W3C//DTD SVG 1.1//EN" "http://www.w3.org/Graphics/SVG/1.1/DTD/svg11.dtd">
<svg version="1.1" xmlns="http://www.w3.org/2000/svg" xmlns:xlink="http://www.w3.org/1999/xlink" x="0px" y="0px"
	 viewBox="0 0 32 32" enable-background="new 0 0 32 32" xml:space="preserve">
<g id="Layer_1">
</g>
<g id="Layer_2">
</g>
<g id="Layer_3">
</g>
<g id="Layer_4">
</g>
<g id="Layer_5">
</g>
<g id="Layer_6">
</g>
<g id="Layer_7">
</g>
<g id="Layer_8">
</g>
<g id="Layer_9">
</g>
<g id="Layer_10">
</g>
<g id="Layer_11">
</g>
<g id="Layer_12">
</g>
<g id="Layer_13">
</g>
<g id="Layer_14">
</g>
<g id="Layer_15">
</g>
<g id="Layer_16">
</g>
<g id="Layer_17">
</g>
<g id="Layer_18">
</g>
<g id="Layer_19">
</g>
<g id="Layer_20">
</g>
<g id="Layer_21">
</g>
<g id="Layer_22">
</g>
<g id="Layer_23">
</g>
<g id="Layer_24">
</g>
<g id="Layer_25">
</g>
<g id="Layer_26">
</g>
<g id="Layer_27">
</g>
<g id="Layer_28">
</g>
<g id="Layer_29">
</g>
<g id="Layer_30">
</g>
<g id="Layer_31">
</g>
<g id="Layer_32">
</g>
<g id="Layer_33">
</g>
<g id="Layer_34">
</g>
<g id="Layer_35">
</g>
<g id="Layer_36">
</g>
<g id="Layer_37">
</g>
<g id="Layer_38">
</g>
<g id="Layer_39">
</g>
<g id="Layer_40">
</g>
<g id="Layer_41">
</g>
<g id="Layer_42">
</g>
<g id="Layer_43">
</g>
<g id="Layer_44">
</g>
<g id="Layer_45">
</g>
<g id="Layer_46">
</g>
<g id="Layer_47">
</g>
<g id="Layer_48">
</g>
<g id="Layer_49">
</g>
<g id="Layer_50">
</g>
<g id="Layer_51">
</g>
<g id="Layer_52">
</g>
<g id="Layer_53">
</g>
<g id="Layer_54">
</g>
<g id="Layer_55">
</g>
<g id="Layer_56">
</g>
<g id="Layer_57">
</g>
<g id="Layer_58">
</g>
<g id="Layer_59">
	<g>
		<circle fill="#FFFFFF" cx="16" cy="16" r="15"/>
		<path d="M12.4,12c1.4,0,2.5-1.4,2.5-3.3c0-1.8-1.1-3.3-2.4-3.4c-1.4,0-2.5,1.4-2.5,3.3C10,10.5,11.1,12,12.4,12z M19.8,12.1
			c1.4,0,2.5-1.4,2.5-3.3c0-1.8-1.1-3.3-2.4-3.4c-1.4,0-2.5,1.4-2.5,3.3C17.4,10.6,18.5,12.1,19.8,12.1z M8.7,15.9
			c1.1-0.2,1.8-1.5,1.5-3c-0.3-1.5-1.4-2.5-2.5-2.2c-1.1,0.2-1.8,1.5-1.5,3C6.5,15.1,7.6,16.1,8.7,15.9z M24.6,10.9
			c-1.1-0.3-2.2,0.7-2.6,2.2c-0.3,1.5,0.3,2.8,1.4,3.1c1.1,0.3,2.2-0.7,2.6-2.2C26.3,12.5,25.7,11.1,24.6,10.9z M22.9,19.2
			c-0.9-1.8-2-3.8-3.7-5c-1.3-0.8-2.9-1.1-4.4-0.7c-1.2,0.3-2.3,1.2-3.1,2.2c-0.9,1.1-1.7,2.3-2.4,3.5C8.6,20.4,8,21.7,8,23.2
			c0,1.3,0.5,2.3,1.4,2.9c0.4,0.2,0.7,0.4,1.2,0.4c0.9,0,1.7-0.6,2.5-1c0.9-0.5,1.8-0.9,2.8-0.9c1.3,0,2.3,0.6,3.3,1.4
			c0.8,0.7,2.1,1,3.1,0.4c1.1-0.6,1.5-1.9,1.6-3.1c0.1-1.3-0.3-2.6-0.9-3.8C23,19.4,22.9,19.3,22.9,19.2z M21.9,21.1l-2,0l0,2l-1,0
			l0-2l-2,0l0-1l2,0l0-2l1,0l0,2l2,0L21.9,21.1z"/>
		<path fill="#ED2F22" d="M16.3,0C7.4-0.1,0.1,6.9,0,15.7S6.9,31.9,15.7,32S31.9,25.1,32,16.3S25.1,0.1,16.3,0z M2,15.8
			C2.1,8.1,8.5,1.9,16.2,2c3.8,0.1,7.1,1.6,9.6,4.1L5.8,25.5C3.4,23,1.9,19.5,2,15.8z M15.8,30c-3.2-0.1-6.2-1.2-8.6-3.1L27.2,7.6
			C29,10,30,13,30,16.2C29.9,23.9,23.5,30.1,15.8,30z"/>
	</g>
</g>
<g id="Layer_60">
</g>
<g id="Layer_61">
</g>
</svg>
