<?xml version="1.0" encoding="utf-8"?>
<!-- Generator: Adobe Illustrator 18.0.0, SVG Export Plug-In . SVG Version: 6.00 Build 0)  -->
<!DOCTYPE svg PUBLIC "-//W3C//DTD SVG 1.1//EN" "http://www.w3.org/Graphics/SVG/1.1/DTD/svg11.dtd">
<svg version="1.1" xmlns="http://www.w3.org/2000/svg" xmlns:xlink="http://www.w3.org/1999/xlink" x="0px" y="0px"
	 viewBox="0 0 36 36" enable-background="new 0 0 36 36" xml:space="preserve">
<g id="Layer_1">
</g>
<g id="Layer_2">
</g>
<g id="Layer_3">
</g>
<g id="Layer_4">
	<g>
		<g>
			<path d="M4.1,35c-1.3,0-2.2-1.7-2.6-2.4c-0.5-0.9-0.6-2.8-0.1-3.7l14-26C15.9,2,16.8,1.5,18,1.5c1.3,0,2.2,0.4,2.6,1.3l13.9,25.8
				c0.5,0.9,0.5,3-0.1,3.9C34,33.4,33.2,35,31.9,35H4.1z"/>
		</g>
		<g>
			<path fill="#ED2F22" d="M18,2c0.7,0,1.4,0.4,1.8,1.1L33.7,29c0.3,0.6,0.3,2.4-0.1,3c-0.4,0.6-1,2-1.7,2H4.1
				c-0.7,0-1.4-1.3-1.7-1.9C2,31.5,2,30,2.3,29.4l14-26.2C16.6,2.5,17.3,2,18,2L18,2 M18,0L18,0c-2.1,0-3.1,1.3-3.5,2.1l-14,26
				c-0.7,1.3-0.6,3.7,0.1,4.9C1.1,33.9,2.2,36,4.1,36h27.8c1.8,0,2.9-2,3.4-2.9c0.7-1.2,0.8-3.5,0.1-4.8L21.6,2.2
				C21.2,1.5,20.2,0,18,0L18,0z"/>
		</g>
	</g>
	<g>
		<circle fill="#FFFFFF" cx="19" cy="14" r="2"/>
		<path fill="#FFFFFF" d="M14,24c-0.5,0-1,0-1.6,0c-0.3,0-0.7,0-1,0c-0.3,0-0.5,0.1-0.6,0.3c-0.1,0.2-0.3,0.5-0.3,0.7
			c0,0.3,0.1,0.6,0.4,0.8c0,0,0.1,0,0.1,0.1C11.3,26,12,26,12,26s1.8,0,2.7,0c0.3,0,0.5,0,0.8,0l0.3-2.9c0.7,0.9,1.3,1.8,2,2.8
			c0.4,0.6,0.8,1.1,1.2,1.7c0.3,0.4,0.7,1,1.3,0.8c0.3-0.1,0.5-0.4,0.6-0.7c0-0.4-0.4-0.8-0.5-1.1c-0.3-0.5-0.6-0.9-0.8-1.4
			c-0.5-0.9-1.1-1.8-1.6-2.7c-0.2-0.3-0.7-0.9-0.6-1.3c0.2-0.5,0.5-1,0.7-1.6c0.1-0.3,0.2-0.6,0.4-0.8c0-0.1,0.2-0.3,0.2-0.4
			c0,0.1,1.4,1,1.6,1.1c0.5,0.4,1.4,0.7,2.1,0.7c0.6-0.1,0.7-1,0.3-1.4c-0.2-0.2-0.6-0.2-0.7-0.4c-0.5-0.4-1-0.8-1.5-1.1
			c-0.4-0.3-0.7-0.6-1.1-0.8c-0.2-0.1-0.6-0.6-0.8-0.7h-3.1c-0.4,0-0.9,0-1.4,0.2c-0.4,0.1-0.6,0.5-0.9,0.9
			c-0.3,0.4-0.5,0.7-0.8,1.1c-0.2,0.3-0.5,0.5-0.5,0.9c0,0.3,0.4,0.5,0.6,0.7c0.4,0.2,0.7,0,0.9-0.3c0.2-0.3,0.5-0.6,0.8-0.8
			c0.4-0.4,1.1-0.6,1.5-1c-0.2,0.4-0.4,0.7-0.6,1.1c-0.3,0.6-0.8,1.1-0.8,1.8V24z"/>
		<polygon fill="#FFFFFF" points="25.2,23 23,20.8 23,22 20,22 20,24 23,24 23,25.2 		"/>
	</g>
</g>
<g id="Layer_5">
</g>
<g id="Layer_6">
</g>
<g id="Layer_7">
</g>
<g id="Layer_8">
</g>
<g id="Layer_9">
</g>
<g id="Layer_10">
</g>
<g id="Layer_11">
</g>
<g id="Layer_12">
</g>
<g id="Layer_13">
</g>
<g id="Layer_14">
</g>
<g id="Layer_15">
</g>
<g id="Layer_16">
</g>
<g id="Layer_17">
</g>
<g id="Layer_18">
</g>
<g id="Layer_19">
</g>
<g id="Layer_20">
</g>
<g id="Layer_21">
</g>
<g id="Layer_22">
</g>
<g id="Layer_23">
</g>
<g id="Layer_24">
</g>
<g id="Layer_25">
</g>
<g id="Layer_26">
</g>
<g id="Layer_27">
</g>
<g id="Layer_28">
</g>
<g id="Layer_29">
</g>
<g id="Layer_30">
</g>
<g id="Layer_31">
</g>
<g id="Layer_32">
</g>
<g id="Layer_33">
</g>
<g id="Layer_34">
</g>
<g id="Layer_35">
</g>
<g id="Layer_36">
</g>
<g id="Layer_37">
</g>
<g id="Layer_38">
</g>
<g id="Layer_39">
</g>
<g id="Layer_40">
</g>
<g id="Layer_41">
</g>
<g id="Layer_42">
</g>
<g id="Layer_43">
</g>
<g id="Layer_44">
</g>
<g id="Layer_45">
</g>
<g id="Layer_46">
</g>
<g id="Layer_47">
</g>
<g id="Layer_48">
</g>
<g id="Layer_49">
</g>
<g id="Layer_50">
</g>
<g id="Layer_51">
</g>
<g id="Layer_52">
</g>
<g id="Layer_53">
</g>
<g id="Layer_54">
</g>
<g id="Layer_55">
</g>
<g id="Layer_56">
</g>
<g id="Layer_57">
</g>
<g id="Layer_58">
</g>
<g id="Layer_59">
</g>
<g id="Layer_60">
</g>
<g id="Layer_61">
</g>
</svg>
