<?xml version="1.0" encoding="utf-8"?>
<!-- Generator: Adobe Illustrator 18.0.0, SVG Export Plug-In . SVG Version: 6.00 Build 0)  -->
<!DOCTYPE svg PUBLIC "-//W3C//DTD SVG 1.1//EN" "http://www.w3.org/Graphics/SVG/1.1/DTD/svg11.dtd">
<svg version="1.1" xmlns="http://www.w3.org/2000/svg" xmlns:xlink="http://www.w3.org/1999/xlink" x="0px" y="0px"
	 viewBox="0 0 32 32" enable-background="new 0 0 32 32" xml:space="preserve">
<g id="Layer_1">
</g>
<g id="Layer_2">
</g>
<g id="Layer_3">
</g>
<g id="Layer_4">
</g>
<g id="Layer_5">
</g>
<g id="Layer_6">
</g>
<g id="Layer_7">
</g>
<g id="Layer_8">
</g>
<g id="Layer_9">
</g>
<g id="Layer_10">
</g>
<g id="Layer_11">
</g>
<g id="Layer_12">
</g>
<g id="Layer_13">
</g>
<g id="Layer_14">
</g>
<g id="Layer_15">
</g>
<g id="Layer_16">
</g>
<g id="Layer_17">
</g>
<g id="Layer_18">
</g>
<g id="Layer_19">
</g>
<g id="Layer_20">
</g>
<g id="Layer_21">
</g>
<g id="Layer_22">
</g>
<g id="Layer_23">
</g>
<g id="Layer_24">
</g>
<g id="Layer_25">
</g>
<g id="Layer_26">
</g>
<g id="Layer_27">
</g>
<g id="Layer_28">
</g>
<g id="Layer_29">
</g>
<g id="Layer_30">
</g>
<g id="Layer_31">
</g>
<g id="Layer_32">
</g>
<g id="Layer_33">
</g>
<g id="Layer_34">
</g>
<g id="Layer_35">
</g>
<g id="Layer_36">
</g>
<g id="Layer_37">
</g>
<g id="Layer_38">
</g>
<g id="Layer_39">
</g>
<g id="Layer_40">
</g>
<g id="Layer_41">
</g>
<g id="Layer_42">
</g>
<g id="Layer_43">
</g>
<g id="Layer_44">
</g>
<g id="Layer_45">
</g>
<g id="Layer_46">
</g>
<g id="Layer_47">
</g>
<g id="Layer_48">
</g>
<g id="Layer_49">
</g>
<g id="Layer_50">
</g>
<g id="Layer_51">
</g>
<g id="Layer_52">
</g>
<g id="Layer_53">
	<g>
		<path fill="#FFFFFF" d="M30,16c0-7.7-6.3-14-14-14S2,8.3,2,16"/>
		<path d="M16,0C7.2,0,0,7.2,0,16s7.2,16,16,16s16-7.2,16-16S24.8,0,16,0z M16,2c7.7,0,14,6.3,14,14c0,2.2-0.5,4.3-1.4,6.1
			c-0.7-0.1-1.3-0.3-1.6-0.6c-0.5-0.4-1.3-1-2.7-1c-1.5,0-2.2,0.5-2.7,1c-0.4,0.3-0.7,0.6-1.5,0.6V18v-2v-2v-2v-2V8V6h-8v0v1v15
			c-0.2,0.1-0.5,0.1-1,0.1c-1,0-1.3-0.3-1.8-0.7c-0.5-0.4-1.1-1-2.6-1c-1.5,0-1.8,0.5-2.3,1c-0.3,0.2-0.7,0.4-1.1,0.5
			C2.5,20.2,2,18.2,2,16C2,8.3,8.3,2,16,2z M19,10v2h-3v2h3v2h-3v2h3v4.1c-0.5-0.1-0.7-0.3-1-0.6c-0.5-0.4-1.1-1-2.6-1
			c-1.3,0-1.9,0.4-2.4,0.8V7h6v1h-3v2H19z M26.5,25.2c-0.5-0.3-1.2-0.7-2.3-0.7c-1.5,0-2.2,0.5-2.7,1c-0.4,0.4-0.8,0.7-1.8,0.7
			c-1,0-1.3-0.3-1.8-0.7c-0.5-0.4-1.1-1-2.6-1c-1.5,0-2.1,0.5-2.6,1c-0.4,0.4-0.8,0.7-1.8,0.7c-1,0-1.3-0.3-1.8-0.7
			c-0.5-0.4-1.1-1-2.6-1c-0.8,0-1.2,0.1-1.5,0.4c-0.4-0.5-0.7-1-1.1-1.5c0.5-0.2,0.8-0.5,1.1-0.8c0.4-0.4,0.6-0.6,1.6-0.6
			c0.9,0,1.2,0.3,1.6,0.6c0.5,0.5,1.1,1,2.7,1c1.5,0,2.2-0.6,2.7-1c0.4-0.4,0.7-0.6,1.6-0.6s1.2,0.3,1.6,0.6c0.5,0.5,1.2,1,2.7,1
			c1.5,0,2.2-0.6,2.7-1c0.4-0.4,0.7-0.6,1.6-0.6c0.9,0,1.5,0.3,1.9,0.6c0.4,0.3,0.8,0.7,1.8,0.9C27.4,24.1,27,24.6,26.5,25.2z"/>
	</g>
</g>
<g id="Layer_54">
</g>
<g id="Layer_55">
</g>
<g id="Layer_56">
</g>
<g id="Layer_57">
</g>
<g id="Layer_58">
</g>
<g id="Layer_59">
</g>
<g id="Layer_60">
</g>
<g id="Layer_61">
</g>
</svg>
