<?xml version="1.0" encoding="utf-8"?>
<!-- Generator: Adobe Illustrator 18.0.0, SVG Export Plug-In . SVG Version: 6.00 Build 0)  -->
<!DOCTYPE svg PUBLIC "-//W3C//DTD SVG 1.1//EN" "http://www.w3.org/Graphics/SVG/1.1/DTD/svg11.dtd">
<svg version="1.1" xmlns="http://www.w3.org/2000/svg" xmlns:xlink="http://www.w3.org/1999/xlink" x="0px" y="0px"
	 viewBox="0 0 32 32" enable-background="new 0 0 32 32" xml:space="preserve">
<g id="Layer_1">
</g>
<g id="Layer_2">
</g>
<g id="Layer_3">
</g>
<g id="Layer_4">
</g>
<g id="Layer_5">
</g>
<g id="Layer_6">
</g>
<g id="Layer_7">
</g>
<g id="Layer_8">
</g>
<g id="Layer_9">
</g>
<g id="Layer_10">
</g>
<g id="Layer_11">
</g>
<g id="Layer_12">
</g>
<g id="Layer_13">
</g>
<g id="Layer_14">
</g>
<g id="Layer_15">
</g>
<g id="Layer_16">
</g>
<g id="Layer_17">
</g>
<g id="Layer_18">
</g>
<g id="Layer_19">
</g>
<g id="Layer_20">
</g>
<g id="Layer_21">
</g>
<g id="Layer_22">
</g>
<g id="Layer_23">
</g>
<g id="Layer_24">
</g>
<g id="Layer_25">
</g>
<g id="Layer_26">
</g>
<g id="Layer_27">
</g>
<g id="Layer_28">
</g>
<g id="Layer_29">
</g>
<g id="Layer_30">
</g>
<g id="Layer_31">
</g>
<g id="Layer_32">
</g>
<g id="Layer_33">
</g>
<g id="Layer_34">
</g>
<g id="Layer_35">
</g>
<g id="Layer_36">
</g>
<g id="Layer_37">
</g>
<g id="Layer_38">
</g>
<g id="Layer_39">
</g>
<g id="Layer_40">
</g>
<g id="Layer_41">
</g>
<g id="Layer_42">
</g>
<g id="Layer_43">
</g>
<g id="Layer_44">
</g>
<g id="Layer_45">
</g>
<g id="Layer_46">
</g>
<g id="Layer_47">
</g>
<g id="Layer_48">
</g>
<g id="Layer_49">
</g>
<g id="Layer_50">
</g>
<g id="Layer_51">
</g>
<g id="Layer_52">
</g>
<g id="Layer_53">
</g>
<g id="Layer_54">
	<path fill="#231F20" d="M16,10"/>
	<g>
		<g>
			<path fill="#FFFFFF" d="M16,2C8.3,2,2,8.3,2,16s6.3,14,14,14s14-6.3,14-14S23.7,2,16,2z"/>
			<path d="M16,0C7.2,0,0,7.2,0,16s7.2,16,16,16s16-7.2,16-16S24.8,0,16,0z M16,30C8.3,30,2,23.7,2,16S8.3,2,16,2s14,6.3,14,14
				S23.7,30,16,30z"/>
		</g>
		<g>
			<path fill="#231F20" d="M17.9,14.5c0.8,0.5,1.5,1.2,1.8,2.2l6.2-4.4c-1.2-1.9-3-3.3-5-4.3L17.9,14.5z"/>
			<path fill="#231F20" d="M28,19c0-2.1-0.5-4.1-1.5-5.8L20,17.8c0,0.1,0,0.2,0,0.2c0,0.3-0.1,0.7-0.1,1H28z"/>
			<path fill="#231F20" d="M12.2,16.7c0.3-1,1-1.8,1.9-2.3l-3-6.4C9,9,7.3,10.5,6,12.4L12.2,16.7z"/>
			<path fill="#231F20" d="M15.1,14.1C15.4,14,15.7,14,16,14c0.4,0,0.7,0.1,1,0.1l3-6.4C18.8,7.3,17.4,7,16,7
				c-1.4,0-2.7,0.2-3.9,0.7L15.1,14.1z"/>
			<path fill="#231F20" d="M12,18c0-0.1,0-0.1,0-0.2l-6.5-4.6C4.5,14.9,4,16.9,4,19h8.1C12.1,18.7,12,18.3,12,18z"/>
		</g>
		<path d="M16.8,24.2c-0.4-0.6-0.2-1.7-0.3-1.7c-2.5,0.4-1.7,3.3-1.7,3.3c-4.7-3.1-1-6.1-0.1-7c0.9-0.9,1-2.9,1-2.9
			c1.9,1.4,1,4.6,1.1,4.5c1,0,1.4-1.4,1.4-1.4c3.7,5.1-1,6.9-1,6.9C17.3,24.8,17.2,24.8,16.8,24.2z"/>
	</g>
</g>
<g id="Layer_55">
</g>
<g id="Layer_56">
</g>
<g id="Layer_57">
</g>
<g id="Layer_58">
</g>
<g id="Layer_59">
</g>
<g id="Layer_60">
</g>
<g id="Layer_61">
</g>
</svg>
