<?xml version="1.0" encoding="utf-8"?>
<!-- Generator: Adobe Illustrator 18.0.0, SVG Export Plug-In . SVG Version: 6.00 Build 0)  -->
<!DOCTYPE svg PUBLIC "-//W3C//DTD SVG 1.1//EN" "http://www.w3.org/Graphics/SVG/1.1/DTD/svg11.dtd">
<svg version="1.1" xmlns="http://www.w3.org/2000/svg" xmlns:xlink="http://www.w3.org/1999/xlink" x="0px" y="0px"
	 viewBox="0 0 32 32" enable-background="new 0 0 32 32" xml:space="preserve">
<g id="Layer_1">
</g>
<g id="Layer_2">
</g>
<g id="Layer_3">
</g>
<g id="Layer_4">
</g>
<g id="Layer_5">
</g>
<g id="Layer_6">
</g>
<g id="Layer_7">
</g>
<g id="Layer_8">
</g>
<g id="Layer_9">
</g>
<g id="Layer_10">
	<g>
		<path fill="#FFFFFF" d="M16,31.5c-0.1,0-0.3,0-0.4-0.1l-15-15c-0.2-0.2-0.2-0.5,0-0.7l15-15c0.1-0.1,0.2-0.1,0.4-0.1
			s0.3,0,0.4,0.1l15,15c0.2,0.2,0.2,0.5,0,0.7l-15,15C16.3,31.5,16.1,31.5,16,31.5z"/>
		<g>
			<path d="M16,1l15,15L16,31L1,16L16,1 M16,0c-0.3,0-0.5,0.1-0.7,0.3l-15,15c-0.4,0.4-0.4,1,0,1.4l15,15c0.2,0.2,0.5,0.3,0.7,0.3
				s0.5-0.1,0.7-0.3l15-15c0.4-0.4,0.4-1,0-1.4l-15-15C16.5,0.1,16.3,0,16,0L16,0z"/>
		</g>
	</g>
	<path d="M26.2,19.8c0-1-4.3-1.8-9.6-1.8S7,18.7,7,19.8c0,0.7,2,1.3,4.9,1.6c-0.2,0.2-0.3,0.4-0.3,0.7c0,0.2,0.1,0.4,0.2,0.5
		c-1.9,0-3.6,0.3-4.7,0.6l2.4,2.4c0.9,0.1,2,0.2,3.1,0.2c3.9,0,7-0.7,7-1.6c0-0.4-0.7-0.8-1.8-1.1c0.6-0.3,0.9-0.6,0.9-1
		c0-0.2-0.1-0.3-0.2-0.5C22.9,21.4,26.2,20.6,26.2,19.8z"/>
	<ellipse fill="#FFFFFF" cx="16" cy="18.5" rx="4.5" ry="2.1"/>
	<path fill="#FFFFFF" d="M16,12c-3,0-5.4-1.1-5.9-2.5C10.1,9.7,10,9.8,10,10c0,1.7,2.7,3,6,3s6-1.3,6-3c0-0.2,0-0.3-0.1-0.5
		C21.4,10.9,19,12,16,12z"/>
	<path fill="#FFFFFF" d="M16,16c-3,0-5.4-1.1-5.9-2.5C10.1,13.7,10,13.8,10,14c0,1.7,2.7,3,6,3s6-1.3,6-3c0-0.2,0-0.3-0.1-0.5
		C21.4,14.9,19,16,16,16z"/>
	<path fill="#FFFFFF" d="M16,10.9c-2.7,0-4.6,0.8-4.6,1.6s2,1.6,4.6,1.6s4.6-0.8,4.6-1.6S18.7,10.9,16,10.9z"/>
	<path fill="#FFFFFF" d="M16,13.9c-2.7,0-4.6,0.8-4.6,1.6s2,1.6,4.6,1.6s4.6-0.8,4.6-1.6S18.7,13.9,16,13.9z"/>
	<path fill="none" stroke="#FFFFFF" stroke-miterlimit="10" d="M17.7,20"/>
	<path fill="none" stroke="#FFFFFF" stroke-miterlimit="10" d="M15,20"/>
	<path d="M21,14.4v-0.8c0.3-0.3,0.5-0.7,0.5-1.1s-0.2-0.8-0.5-1.1V9.6l0,0c0,0,0-0.1,0-0.1c0-1.5-2.2-2.6-5-2.6
		c-2.8,0-4.9,1.1-5,2.5l0,0v0c0,0,0,0.1,0,0.1s0,0.1,0,0.1v1.8c-0.3,0.3-0.5,0.7-0.5,1.1s0.2,0.8,0.5,1.1v0.8
		c-0.3,0.3-0.5,0.7-0.5,1.1s0.2,0.8,0.5,1.1V21h2v-3.3c0.9,0.3,1.9,0.4,3,0.4c0.3,0,0.7,0,1,0V21h4v-4.4c0.3-0.3,0.5-0.7,0.5-1.1
		S21.3,14.7,21,14.4z M13,13v-1.4c0.8,0.3,1.9,0.5,3,0.5c0.3,0,0.7,0,1,0V13v1v0.1c-0.3,0-0.7,0-1,0c-0.5,0-1,0-1.4-0.1
		c0,0-1.1-0.1-1.6-0.4V13z M16,17.1c-1.2,0-2.2-0.2-3-0.5v-1.9c0.9,0.3,1.9,0.4,3,0.4c0.3,0,0.7,0,1,0v2
		C16.7,17.1,16.3,17.1,16,17.1z"/>
	<path fill="#FFFFFF" d="M16,7.9c-2.3,0-4,0.8-4,1.6s1.7,1.6,4,1.6s4-0.8,4-1.6S18.3,7.9,16,7.9z"/>
	<rect x="13" y="9" width="2" height="1"/>
</g>
<g id="Layer_11">
</g>
<g id="Layer_12">
</g>
<g id="Layer_13">
</g>
<g id="Layer_14">
</g>
<g id="Layer_15">
</g>
<g id="Layer_16">
</g>
<g id="Layer_17">
</g>
<g id="Layer_18">
</g>
<g id="Layer_19">
</g>
<g id="Layer_20">
</g>
<g id="Layer_21">
</g>
<g id="Layer_22">
</g>
<g id="Layer_23">
</g>
<g id="Layer_24">
</g>
<g id="Layer_25">
</g>
<g id="Layer_26">
</g>
<g id="Layer_27">
</g>
<g id="Layer_28">
</g>
<g id="Layer_29">
</g>
<g id="Layer_30">
</g>
<g id="Layer_31">
</g>
<g id="Layer_32">
</g>
<g id="Layer_33">
</g>
<g id="Layer_34">
</g>
<g id="Layer_35">
</g>
<g id="Layer_36">
</g>
<g id="Layer_37">
</g>
<g id="Layer_38">
</g>
<g id="Layer_39">
</g>
<g id="Layer_40">
</g>
<g id="Layer_41">
</g>
<g id="Layer_42">
</g>
<g id="Layer_43">
</g>
<g id="Layer_44">
</g>
<g id="Layer_45">
</g>
<g id="Layer_46">
</g>
<g id="Layer_47">
</g>
<g id="Layer_48">
</g>
<g id="Layer_49">
</g>
<g id="Layer_50">
</g>
<g id="Layer_51">
</g>
<g id="Layer_52">
</g>
<g id="Layer_53">
</g>
<g id="Layer_54">
</g>
<g id="Layer_55">
</g>
<g id="Layer_56">
</g>
<g id="Layer_57">
</g>
<g id="Layer_58">
</g>
<g id="Layer_59">
</g>
<g id="Layer_60">
</g>
<g id="Layer_61">
</g>
</svg>
