<?xml version="1.0" encoding="utf-8"?>
<!-- Generator: Adobe Illustrator 18.0.0, SVG Export Plug-In . SVG Version: 6.00 Build 0)  -->
<!DOCTYPE svg PUBLIC "-//W3C//DTD SVG 1.1//EN" "http://www.w3.org/Graphics/SVG/1.1/DTD/svg11.dtd">
<svg version="1.1" xmlns="http://www.w3.org/2000/svg" xmlns:xlink="http://www.w3.org/1999/xlink" x="0px" y="0px"
	 viewBox="0 0 32 32" enable-background="new 0 0 32 32" xml:space="preserve">
<g id="Layer_1">
</g>
<g id="Layer_2">
</g>
<g id="Layer_3">
</g>
<g id="Layer_4">
</g>
<g id="Layer_5">
</g>
<g id="Layer_6">
	<g>
		<path fill="#FFFFFF" d="M16,31.5c-0.1,0-0.3,0-0.4-0.1l-15-15c-0.2-0.2-0.2-0.5,0-0.7l15-15c0.1-0.1,0.2-0.1,0.4-0.1
			s0.3,0,0.4,0.1l15,15c0.2,0.2,0.2,0.5,0,0.7l-15,15C16.3,31.5,16.1,31.5,16,31.5z"/>
		<g>
			<path d="M16,1l15,15L16,31L1,16L16,1 M16,0c-0.3,0-0.5,0.1-0.7,0.3l-15,15c-0.4,0.4-0.4,1,0,1.4l15,15c0.2,0.2,0.5,0.3,0.7,0.3
				s0.5-0.1,0.7-0.3l15-15c0.4-0.4,0.4-1,0-1.4l-15-15C16.5,0.1,16.3,0,16,0L16,0z"/>
		</g>
	</g>
	<g>
		<g>
			<path d="M13.1,17H8c-0.2,1,0,2.5,0.6,3.6c0.6,1.1,1.6,2,2.7,2.4l2.7-4.2C13.5,18.3,13.2,18,13.1,17z"/>
			<path d="M18.9,17H24c0.2,1,0,2.5-0.6,3.6c-0.6,1.1-1.6,2-2.7,2.4L18,18.8C18.5,18.3,18.8,18,18.9,17z"/>
			<path d="M16,12.8c0.3,0,0.7,0.1,0.9,0.2l2.6-4.8C18.6,7.5,17.4,7,16,7c-1.3,0-2.6,0.5-3.5,1.2l2.6,4.8
				C15.4,12.9,15.7,12.8,16,12.8z"/>
			<circle cx="16" cy="15.9" r="1.5"/>
		</g>
	</g>
</g>
<g id="Layer_7">
</g>
<g id="Layer_8">
</g>
<g id="Layer_9">
</g>
<g id="Layer_10">
</g>
<g id="Layer_11">
</g>
<g id="Layer_12">
</g>
<g id="Layer_13">
</g>
<g id="Layer_14">
</g>
<g id="Layer_15">
</g>
<g id="Layer_16">
</g>
<g id="Layer_17">
</g>
<g id="Layer_18">
</g>
<g id="Layer_19">
</g>
<g id="Layer_20">
</g>
<g id="Layer_21">
</g>
<g id="Layer_22">
</g>
<g id="Layer_23">
</g>
<g id="Layer_24">
</g>
<g id="Layer_25">
</g>
<g id="Layer_26">
</g>
<g id="Layer_27">
</g>
<g id="Layer_28">
</g>
<g id="Layer_29">
</g>
<g id="Layer_30">
</g>
<g id="Layer_31">
</g>
<g id="Layer_32">
</g>
<g id="Layer_33">
</g>
<g id="Layer_34">
</g>
<g id="Layer_35">
</g>
<g id="Layer_36">
</g>
<g id="Layer_37">
</g>
<g id="Layer_38">
</g>
<g id="Layer_39">
</g>
<g id="Layer_40">
</g>
<g id="Layer_41">
</g>
<g id="Layer_42">
</g>
<g id="Layer_43">
</g>
<g id="Layer_44">
</g>
<g id="Layer_45">
</g>
<g id="Layer_46">
</g>
<g id="Layer_47">
</g>
<g id="Layer_48">
</g>
<g id="Layer_49">
</g>
<g id="Layer_50">
</g>
<g id="Layer_51">
</g>
<g id="Layer_52">
</g>
<g id="Layer_53">
</g>
<g id="Layer_54">
</g>
<g id="Layer_55">
</g>
<g id="Layer_56">
</g>
<g id="Layer_57">
</g>
<g id="Layer_58">
</g>
<g id="Layer_59">
</g>
<g id="Layer_60">
</g>
<g id="Layer_61">
</g>
</svg>
