<?xml version="1.0" encoding="utf-8"?>
<!-- Generator: Adobe Illustrator 18.0.0, SVG Export Plug-In . SVG Version: 6.00 Build 0)  -->
<!DOCTYPE svg PUBLIC "-//W3C//DTD SVG 1.1//EN" "http://www.w3.org/Graphics/SVG/1.1/DTD/svg11.dtd">
<svg version="1.1" xmlns="http://www.w3.org/2000/svg" xmlns:xlink="http://www.w3.org/1999/xlink" x="0px" y="0px"
	 viewBox="0 0 32 32" enable-background="new 0 0 32 32" xml:space="preserve">
<g id="Layer_1">
</g>
<g id="Layer_2">
</g>
<g id="Layer_3">
</g>
<g id="Layer_4">
</g>
<g id="Layer_5">
</g>
<g id="Layer_6">
</g>
<g id="Layer_7">
</g>
<g id="Layer_8">
</g>
<g id="Layer_9">
</g>
<g id="Layer_10">
</g>
<g id="Layer_11">
</g>
<g id="Layer_12">
</g>
<g id="Layer_13">
</g>
<g id="Layer_14">
</g>
<g id="Layer_15">
</g>
<g id="Layer_16">
</g>
<g id="Layer_17">
</g>
<g id="Layer_18">
</g>
<g id="Layer_19">
	<g>
		<g>
			<rect x="5.4" y="5.4" transform="matrix(0.7071 -0.7071 0.7071 0.7071 -6.6274 16)" fill="#FFFFFF" width="21.2" height="21.2"/>
			<g>
				<path d="M15.3,0.3l-2.8,2.8l0.7,0.7l0,0l0.1-0.1l0,0l0.3-0.3l0,0l0.5-0.5l0,0l0.5-0.5l0,0l0.5-0.5l0,0l0.5-0.5l0,0l0.3-0.3l0,0
					L16,1l0,0L15.3,0.3L15.3,0.3z M11.1,4.5L11.1,4.5l0.7,0.7l0,0l0,0l0,0l0,0l0,0l0,0l0,0l0,0l0,0l0,0l0,0l0,0l0,0l0,0l0,0l0,0l0,0
					L11.1,4.5L11.1,4.5z M11,4.6L11,4.6l0.7,0.7l0,0l0,0l0,0l0,0l0,0l0,0l0,0l0,0l0,0l0,0l0,0l0,0l0,0l0,0l0,0l0,0l0,0L11,4.6
					L11,4.6z M10.9,4.7L8.1,7.5l0.7,0.7l0,0l0.1-0.1l0,0l0.3-0.3l0,0l0.5-0.5l0,0l0.5-0.5l0,0l0.5-0.5l0,0l0.5-0.5l0,0l0.3-0.3l0,0
					l0.1-0.1l0,0L10.9,4.7L10.9,4.7z M6.7,8.9L6.7,8.9l0.7,0.7l0,0l0,0l0,0l0,0l0,0l0,0l0,0l0,0l0,0l0,0l0,0l0,0l0,0l0,0l0,0l0,0
					l0,0L6.7,8.9L6.7,8.9z M6.6,9L6.6,9l0.7,0.7l0,0l0,0l0,0l0,0l0,0l0,0l0,0l0,0l0,0l0,0l0,0l0,0l0,0l0,0l0,0l0,0l0,0L6.6,9L6.6,9z
					 M6.5,9.1l-2.8,2.8l0.7,0.7l0,0l0.1-0.1l0,0l0.3-0.3l0,0l0.5-0.5l0,0l0.5-0.5l0,0l0.5-0.5l0,0l0.5-0.5l0,0l0.3-0.3l0,0l0.1-0.1
					l0,0L6.5,9.1L6.5,9.1z M2.3,13.3L2.3,13.3l0.7,0.7l0,0l0,0l0,0l0,0l0,0l0,0l0,0l0,0l0,0l0,0l0,0l0,0l0,0l0,0l0,0l0,0l0,0
					L2.3,13.3L2.3,13.3z M2.2,13.4L2.2,13.4l0.7,0.7l0,0l0,0l0,0l0,0l0,0l0,0l0,0l0,0l0,0l0,0l0,0l0,0l0,0l0,0l0,0l0,0l0,0L2.2,13.4
					L2.2,13.4z M2.1,13.5l-1.8,1.8c-0.4,0.4-0.4,1,0,1.4l1,1L2,17l-1-1l0,0l0,0l0,0l0.1-0.1l0,0l0.2-0.2l0,0l0.3-0.3l0,0l0.3-0.3
					l0,0l0.3-0.3l0,0l0.3-0.3l0,0l0.2-0.2l0,0l0.1-0.1l0,0L2.1,13.5L2.1,13.5z M3.4,18.4l-0.7,0.7l0,0L3.4,18.4L3.4,18.4L3.4,18.4z
					 M3.5,18.5l-0.7,0.7l0,0L3.5,18.5L3.5,18.5L3.5,18.5z M3.6,18.6l-0.7,0.7l2.8,2.8l0.7-0.7L3.6,18.6L3.6,18.6z M7.8,22.8
					l-0.7,0.7l0,0L7.8,22.8L7.8,22.8L7.8,22.8z M7.9,22.9l-0.7,0.7l0,0L7.9,22.9L7.9,22.9L7.9,22.9z M8,23l-0.7,0.7l2.8,2.8l0.7-0.7
					L8,23L8,23z M12.2,27.2l-0.7,0.7l0,0L12.2,27.2L12.2,27.2L12.2,27.2z M12.3,27.3L11.6,28l0,0L12.3,27.3L12.3,27.3L12.3,27.3z
					 M12.4,27.4l-0.7,0.7l2.8,2.8l0.7-0.7L12.4,27.4L12.4,27.4z M16.7,30.3L16.7,30.3l0.7,0.7l0,0L16.7,30.3L16.7,30.3z M16.7,30.3
					L16.7,30.3l0.7,0.7l0,0L16.7,30.3L16.7,30.3z M19.6,27.4l-2.8,2.8l0.7,0.7l2.8-2.8L19.6,27.4L19.6,27.4z M21.1,25.9L21.1,25.9
					l0.7,0.7l0,0L21.1,25.9L21.1,25.9z M21.1,25.9L21.1,25.9l0.7,0.7l0,0L21.1,25.9L21.1,25.9z M24,23l-2.8,2.8l0.7,0.7l2.8-2.8
					L24,23L24,23z M25.5,21.5L25.5,21.5l0.7,0.7l0,0L25.5,21.5L25.5,21.5z M25.5,21.5L25.5,21.5l0.7,0.7l0,0L25.5,21.5L25.5,21.5z
					 M28.4,18.6l-2.8,2.8l0.7,0.7l2.8-2.8L28.4,18.6L28.4,18.6z M29.9,17.1L29.9,17.1l0.7,0.7l0,0L29.9,17.1L29.9,17.1z M29.9,17.1
					L29.9,17.1l0.7,0.7l0,0L29.9,17.1L29.9,17.1z M29.9,13.5l-0.7,0.7l0,0l0.1,0.1l0,0l0.2,0.2l0,0l0.3,0.3l0,0l0.3,0.3l0,0l0.3,0.3
					l0,0l0.3,0.3l0,0l0.2,0.2l0,0L31,16l0,0l0,0l0,0l-1,1l0.7,0.7l1-1c0.4-0.4,0.4-1,0-1.4L29.9,13.5L29.9,13.5z M28.4,12l-0.7,0.7
					l0,0l0,0l0,0l0,0l0,0l0,0l0,0l0,0l0,0l0,0l0,0l0,0l0,0l0,0l0,0l0,0l0,0L28.4,12L28.4,12L28.4,12z M28.4,12l-0.7,0.7l0,0l0,0l0,0
					l0,0l0,0l0,0l0,0l0,0l0,0l0,0l0,0l0,0l0,0l0,0l0,0l0,0l0,0L28.4,12L28.4,12L28.4,12z M25.5,9.1l-0.7,0.7l0,0l0.1,0.1l0,0
					l0.3,0.3l0,0l0.5,0.5l0,0l0.5,0.5l0,0l0.5,0.5l0,0l0.5,0.5l0,0l0.3,0.3l0,0l0.1,0.1l0,0l0.7-0.7L25.5,9.1L25.5,9.1z M24,7.6
					l-0.7,0.7l0,0l0,0l0,0l0,0l0,0l0,0l0,0l0,0l0,0l0,0l0,0l0,0l0,0l0,0l0,0l0,0l0,0L24,7.6L24,7.6L24,7.6z M24,7.6l-0.7,0.7l0,0
					l0,0l0,0l0,0l0,0l0,0l0,0l0,0l0,0l0,0l0,0l0,0l0,0l0,0l0,0l0,0l0,0L24,7.6L24,7.6L24,7.6z M21.1,4.7l-0.7,0.7l0,0l0.1,0.1l0,0
					l0.3,0.3l0,0l0.5,0.5l0,0l0.5,0.5l0,0l0.5,0.5l0,0l0.5,0.5l0,0l0.3,0.3l0,0l0.1,0.1l0,0l0.7-0.7L21.1,4.7L21.1,4.7z M19.6,3.2
					l-0.7,0.7l0,0l0,0l0,0l0,0l0,0l0,0l0,0l0,0l0,0l0,0l0,0l0,0l0,0l0,0l0,0l0,0l0,0L19.6,3.2L19.6,3.2L19.6,3.2z M19.6,3.2
					l-0.7,0.7l0,0l0,0l0,0l0,0l0,0l0,0l0,0l0,0l0,0l0,0l0,0l0,0l0,0l0,0l0,0l0,0l0,0L19.6,3.2L19.6,3.2L19.6,3.2z M16.7,0.3L16,1
					l0,0l0.1,0.1l0,0l0.3,0.3l0,0l0.5,0.5l0,0l0.5,0.5l0,0l0.5,0.5l0,0l0.5,0.5l0,0l0.3,0.3l0,0l0.1,0.1l0,0l0.7-0.7L16.7,0.3
					L16.7,0.3z"/>
			</g>
		</g>
		<path d="M17.1,20.5c-0.6-0.8-0.3-2.4-0.4-2.4c-3.5,0.5-2.4,4.6-2.4,4.6c-6.5-4.3-1.4-8.5-0.1-9.7s1.4-4,1.4-4
			c2.6,1.9,1.4,6.4,1.5,6.3c1.4,0,2-2,2-2c5.2,7.2-1.4,9.7-1.4,9.7C17.8,21.3,17.6,21.3,17.1,20.5z"/>
	</g>
</g>
<g id="Layer_20">
</g>
<g id="Layer_21">
</g>
<g id="Layer_22">
</g>
<g id="Layer_23">
</g>
<g id="Layer_24">
</g>
<g id="Layer_25">
</g>
<g id="Layer_26">
</g>
<g id="Layer_27">
</g>
<g id="Layer_28">
</g>
<g id="Layer_29">
</g>
<g id="Layer_30">
</g>
<g id="Layer_31">
</g>
<g id="Layer_32">
</g>
<g id="Layer_33">
</g>
<g id="Layer_34">
</g>
<g id="Layer_35">
</g>
<g id="Layer_36">
</g>
<g id="Layer_37">
</g>
<g id="Layer_38">
</g>
<g id="Layer_39">
</g>
<g id="Layer_40">
</g>
<g id="Layer_41">
</g>
<g id="Layer_42">
</g>
<g id="Layer_43">
</g>
<g id="Layer_44">
</g>
<g id="Layer_45">
</g>
<g id="Layer_46">
</g>
<g id="Layer_47">
</g>
<g id="Layer_48">
</g>
<g id="Layer_49">
</g>
<g id="Layer_50">
</g>
<g id="Layer_51">
</g>
<g id="Layer_52">
</g>
<g id="Layer_53">
</g>
<g id="Layer_54">
</g>
<g id="Layer_55">
</g>
<g id="Layer_56">
</g>
<g id="Layer_57">
</g>
<g id="Layer_58">
</g>
<g id="Layer_59">
</g>
<g id="Layer_60">
</g>
<g id="Layer_61">
</g>
</svg>
