<?xml version="1.0" encoding="utf-8"?>
<!-- Generator: Adobe Illustrator 18.0.0, SVG Export Plug-In . SVG Version: 6.00 Build 0)  -->
<!DOCTYPE svg PUBLIC "-//W3C//DTD SVG 1.1//EN" "http://www.w3.org/Graphics/SVG/1.1/DTD/svg11.dtd">
<svg version="1.1" xmlns="http://www.w3.org/2000/svg" xmlns:xlink="http://www.w3.org/1999/xlink" x="0px" y="0px"
	 viewBox="0 0 32 32" enable-background="new 0 0 32 32" xml:space="preserve">
<g id="Layer_1">
</g>
<g id="Layer_2">
</g>
<g id="Layer_3">
</g>
<g id="Layer_4">
</g>
<g id="Layer_5">
</g>
<g id="Layer_6">
</g>
<g id="Layer_7">
</g>
<g id="Layer_8">
</g>
<g id="Layer_9">
</g>
<g id="Layer_10">
</g>
<g id="Layer_11">
</g>
<g id="Layer_12">
</g>
<g id="Layer_13">
</g>
<g id="Layer_14">
</g>
<g id="Layer_15">
</g>
<g id="Layer_16">
</g>
<g id="Layer_17">
</g>
<g id="Layer_18">
</g>
<g id="Layer_19">
</g>
<g id="Layer_20">
</g>
<g id="Layer_21">
</g>
<g id="Layer_22">
</g>
<g id="Layer_23">
</g>
<g id="Layer_24">
</g>
<g id="Layer_25">
</g>
<g id="Layer_26">
</g>
<g id="Layer_27">
</g>
<g id="Layer_28">
</g>
<g id="Layer_29">
</g>
<g id="Layer_30">
</g>
<g id="Layer_31">
</g>
<g id="Layer_32">
</g>
<g id="Layer_33">
</g>
<g id="Layer_34">
</g>
<g id="Layer_35">
	<g>
		
			<circle fill="#007500" stroke="#FFFFFF" stroke-width="2" stroke-linejoin="round" stroke-miterlimit="10" cx="16" cy="16" r="15"/>
		<g>
			<g>
				<circle fill="#FFFFFF" cx="10.5" cy="13" r="2"/>
				<path fill="#FFFFFF" d="M11.8,19c0-0.8,0.2-1.5,1.2-1.8v-0.3c0-0.4-0.3-0.9-0.7-0.9H8.7C8.3,16,8,16.5,8,16.9v4.4
					C8,21.7,8.3,22,8.7,22h0.2h3C11.9,22,11.8,18.9,11.8,19z"/>
				<circle fill="#FFFFFF" cx="21.4" cy="13" r="2"/>
				<path fill="#FFFFFF" d="M23,22h0.2c0.4,0,0.8-0.8,0.8-1.2v-3.9c0-0.4-0.4-0.9-0.8-0.9h-3.5c-0.4,0-0.7,0.5-0.7,0.9v0.3
					c1,0.3,1,1,1,1.8v3H23z"/>
				<path fill="#FFFFFF" d="M17.8,25h0.3c0.4,0,0.9-0.5,0.9-0.9v-3.8V19l0,0c0-0.4-0.5-1-0.9-1h-4.3c-0.4,0-0.8,0.6-0.8,1l0,0v1.3
					v3.8c0,0.4,0.4,0.9,0.8,0.9h0.3H17.8z"/>
				<circle fill="#FFFFFF" cx="16" cy="14.9" r="2"/>
			</g>
			<circle fill="#FFFFFF" cx="16" cy="10" r="2"/>
		</g>
	</g>
</g>
<g id="Layer_36">
</g>
<g id="Layer_37">
</g>
<g id="Layer_38">
</g>
<g id="Layer_39">
</g>
<g id="Layer_40">
</g>
<g id="Layer_41">
</g>
<g id="Layer_42">
</g>
<g id="Layer_43">
</g>
<g id="Layer_44">
</g>
<g id="Layer_45">
</g>
<g id="Layer_46">
</g>
<g id="Layer_47">
</g>
<g id="Layer_48">
</g>
<g id="Layer_49">
</g>
<g id="Layer_50">
</g>
<g id="Layer_51">
</g>
<g id="Layer_52">
</g>
<g id="Layer_53">
</g>
<g id="Layer_54">
</g>
<g id="Layer_55">
</g>
<g id="Layer_56">
</g>
<g id="Layer_57">
</g>
<g id="Layer_58">
</g>
<g id="Layer_59">
</g>
<g id="Layer_60">
</g>
<g id="Layer_61">
</g>
</svg>
