<?xml version="1.0" encoding="UTF-8" standalone="no"?>
<!-- Generator: Adobe Illustrator 18.0.0, SVG Export Plug-In . SVG Version: 6.00 Build 0)  -->

<svg
   xmlns:dc="http://purl.org/dc/elements/1.1/"
   xmlns:cc="http://creativecommons.org/ns#"
   xmlns:rdf="http://www.w3.org/1999/02/22-rdf-syntax-ns#"
   xmlns:svg="http://www.w3.org/2000/svg"
   xmlns="http://www.w3.org/2000/svg"
   xmlns:sodipodi="http://sodipodi.sourceforge.net/DTD/sodipodi-0.dtd"
   xmlns:inkscape="http://www.inkscape.org/namespaces/inkscape"
   version="1.1"
   x="0px"
   y="0px"
   viewBox="0 0 64 64"
   enable-background="new 0 0 32 32"
   xml:space="preserve"
   id="svg2"
   inkscape:version="0.48.5 r10040"
   width="100%"
   height="100%"
   sodipodi:docname="hazard.svg"><metadata
   id="metadata82"><rdf:RDF><cc:Work
       rdf:about=""><dc:format>image/svg+xml</dc:format><dc:type
         rdf:resource="http://purl.org/dc/dcmitype/StillImage" /></cc:Work></rdf:RDF></metadata><defs
   id="defs80">
	

		
		
		
	</defs><sodipodi:namedview
   pagecolor="#ffffff"
   bordercolor="#666666"
   borderopacity="1"
   objecttolerance="10"
   gridtolerance="10"
   guidetolerance="10"
   inkscape:pageopacity="0"
   inkscape:pageshadow="2"
   inkscape:window-width="1759"
   inkscape:window-height="1058"
   id="namedview78"
   showgrid="false"
   inkscape:zoom="7.375"
   inkscape:cx="-38.055837"
   inkscape:cy="8.0918182"
   inkscape:window-x="1519"
   inkscape:window-y="-8"
   inkscape:window-maximized="1"
   inkscape:current-layer="svg2" />
<g
   id="Layer_1"
   transform="translate(0,32)">
</g>
<g
   id="Layer_2"
   transform="translate(0,32)">
</g>
<g
   id="Layer_3"
   transform="translate(0,32)">
</g>
<g
   id="Layer_4"
   transform="translate(0,32)">
</g>
<g
   id="Layer_5"
   transform="translate(0,32)">
</g>
<g
   id="Layer_6"
   transform="translate(0,32)">
</g>
<g
   id="Layer_7"
   transform="translate(0,32)">
</g>
<g
   id="Layer_8"
   transform="translate(0,32)">
</g>
<g
   id="Layer_9"
   transform="translate(0,32)">
</g>
<g
   id="Layer_10"
   transform="translate(0,32)">
</g>
<g
   id="Layer_11"
   transform="translate(0,32)">
</g>
<g
   id="Layer_12"
   transform="translate(0,32)">
</g>
<g
   id="Layer_13"
   transform="translate(0,32)">
</g>
<g
   id="Layer_14"
   transform="translate(0,32)">
</g>
<g
   id="Layer_15"
   transform="translate(0,32)">
</g>
<g
   id="Layer_16"
   transform="translate(0,32)">
</g>
<g
   id="Layer_17"
   transform="translate(0,32)">
</g>
<g
   id="Layer_18"
   transform="translate(0,32)">
</g>
<g
   id="Layer_19"
   transform="translate(0,32)">
</g>
<g
   id="Layer_20"
   transform="translate(0,32)">
</g>
<g
   id="Layer_21"
   transform="translate(0,32)">
</g>
<g
   id="Layer_22"
   transform="translate(0,32)">
</g>
<g
   id="Layer_23"
   transform="translate(0,32)">
</g>
<g
   id="Layer_24"
   transform="translate(0,32)">
</g>
<g
   id="Layer_25"
   transform="translate(0,32)">
</g>
<g
   id="Layer_26"
   transform="translate(0,32)">
</g>
<g
   id="Layer_27"
   transform="translate(0,32)">
</g>
<g
   id="Layer_28"
   transform="translate(0,32)">
</g>
<g
   id="Layer_29"
   transform="translate(0,32)">
</g>
<g
   id="Layer_30"
   transform="translate(0,32)">
</g>
<g
   id="Layer_31"
   transform="translate(0,32)">
</g>
<g
   id="Layer_32"
   transform="translate(0,32)">
</g>
<g
   id="Layer_33"
   transform="translate(0,32)">
</g>
<g
   id="Layer_34"
   transform="translate(0,32)">
</g>
<g
   id="Layer_35"
   transform="translate(0,32)">
</g>
<g
   id="Layer_36"
   transform="translate(0,32)">
</g>
<g
   id="Layer_37"
   transform="translate(0,32)">
</g>
<g
   id="Layer_38"
   transform="translate(0,32)">
</g>
<g
   id="Layer_39"
   transform="translate(0,32)">
</g>
<g
   id="Layer_40"
   transform="translate(0,32)">
</g>
<g
   id="Layer_41"
   transform="translate(0,32)">
</g>
<g
   id="Layer_42"
   transform="translate(0,32)">
</g>
<circle
   d="M 31,16 C 31,24.284271 24.284271,31 16,31 7.7157288,31 1,24.284271 1,16 1,7.7157288 7.7157288,1 16,1 24.284271,1 31,7.7157288 31,16 z"
   cx="16"
   cy="16"
   r="15"
   id="circle49"
   sodipodi:cx="16"
   sodipodi:cy="16"
   sodipodi:rx="15"
   sodipodi:ry="15"
   style="fill:#ffffff"
   transform="translate(0,32)" /><path
   d="M 31.389831,1.2203389 C 14.125424,1.2203389 0,15.345763 0,32.610169 0,49.874576 14.125424,64 31.389831,64 c 17.264406,0 31.38983,-14.125424 31.38983,-31.389831 0,-17.264406 -14.125424,-31.3898301 -31.38983,-31.3898301 z M 3.9237288,32.610169 c 0,-15.106355 12.3597462,-27.4661012 27.4661022,-27.4661012 7.455084,0 14.125423,2.9427966 19.030084,7.6512712 L 11.575,51.640254 C 6.8665254,46.735593 3.9237288,40.065254 3.9237288,32.610169 z M 31.389831,60.076271 c -6.277967,0 -12.16356,-2.158051 -16.872034,-5.885593 L 52.970339,15.738136 c 3.727542,4.708474 5.885593,10.594067 5.885593,16.872033 0,15.106356 -12.359746,27.466102 -27.466101,27.466102 z"
   id="path58"
   inkscape:connector-curvature="0"
   style="fill:#ed2f22" />
<g
   id="Layer_44"
   transform="translate(0,32)">
</g>
<g
   id="Layer_45"
   transform="translate(0,32)">
</g>
<g
   id="Layer_46"
   transform="translate(0,32)">
</g>
<g
   id="Layer_47"
   transform="translate(0,32)">
</g>
<g
   id="Layer_48"
   transform="translate(0,32)">
</g>
<g
   id="Layer_49"
   transform="translate(0,32)">
</g>
<g
   id="Layer_50"
   transform="translate(0,32)">
</g>
<g
   id="Layer_51"
   transform="translate(0,32)">
</g>
<g
   id="Layer_52"
   transform="translate(0,32)">
</g>
<g
   id="Layer_53"
   transform="translate(0,32)">
</g>
<g
   id="Layer_54"
   transform="translate(0,32)">
</g>
<g
   id="Layer_55"
   transform="translate(0,32)">
</g>
<g
   id="Layer_56"
   transform="translate(0,32)">
</g>
<g
   id="Layer_57"
   transform="translate(0,32)">
</g>
<g
   id="Layer_58"
   transform="translate(0,32)">
</g>
<g
   id="Layer_59"
   transform="translate(0,32)">
</g>
<g
   id="Layer_60"
   transform="translate(0,32)">
</g>
<g
   id="Layer_61"
   transform="translate(0,32)">
</g>
</svg>