<?xml version="1.0" encoding="UTF-8" standalone="no"?>
<!-- Generator: Adobe Illustrator 18.0.0, SVG Export Plug-In . SVG Version: 6.00 Build 0)  -->

<svg
   xmlns:dc="http://purl.org/dc/elements/1.1/"
   xmlns:cc="http://creativecommons.org/ns#"
   xmlns:rdf="http://www.w3.org/1999/02/22-rdf-syntax-ns#"
   xmlns:svg="http://www.w3.org/2000/svg"
   xmlns="http://www.w3.org/2000/svg"
   xmlns:sodipodi="http://sodipodi.sourceforge.net/DTD/sodipodi-0.dtd"
   xmlns:inkscape="http://www.inkscape.org/namespaces/inkscape"
   version="1.1"
   x="0px"
   y="0px"
   viewBox="0 0 64 64"
   enable-background="new 0 0 32 32"
   xml:space="preserve"
   id="svg2"
   inkscape:version="0.48.5 r10040"
   width="100%"
   height="100%"
   sodipodi:docname="community.svg"><metadata
   id="metadata81"><rdf:RDF><cc:Work
       rdf:about=""><dc:format>image/svg+xml</dc:format><dc:type
         rdf:resource="http://purl.org/dc/dcmitype/StillImage" /></cc:Work></rdf:RDF></metadata><defs
   id="defs79">
	

		
		
		
	</defs><sodipodi:namedview
   pagecolor="#ffffff"
   bordercolor="#666666"
   borderopacity="1"
   objecttolerance="10"
   gridtolerance="10"
   guidetolerance="10"
   inkscape:pageopacity="0"
   inkscape:pageshadow="2"
   inkscape:window-width="1759"
   inkscape:window-height="1058"
   id="namedview77"
   showgrid="false"
   inkscape:zoom="10.429825"
   inkscape:cx="28.621213"
   inkscape:cy="31.163068"
   inkscape:window-x="1519"
   inkscape:window-y="-8"
   inkscape:window-maximized="1"
   inkscape:current-layer="svg2"
   fit-margin-top="0"
   fit-margin-left="0"
   fit-margin-right="0"
   fit-margin-bottom="0" />
<g
   id="Layer_1"
   transform="translate(0,32)">
</g>
<g
   id="Layer_2"
   transform="translate(0,32)">
</g>
<g
   id="Layer_3"
   transform="translate(0,32)">
</g>
<g
   id="Layer_4"
   transform="translate(0,32)">
</g>
<g
   id="Layer_5"
   transform="translate(0,32)">
</g>
<g
   id="Layer_6"
   transform="translate(0,32)">
</g>
<g
   id="Layer_7"
   transform="translate(0,32)">
</g>
<g
   id="Layer_8"
   transform="translate(0,32)">
</g>
<g
   id="Layer_9"
   transform="translate(0,32)">
</g>
<g
   id="Layer_10"
   transform="translate(0,32)">
</g>
<g
   id="Layer_11"
   transform="translate(0,32)">
</g>
<g
   id="Layer_12"
   transform="translate(0,32)">
</g>
<g
   id="Layer_13"
   transform="translate(0,32)">
</g>
<g
   id="Layer_14"
   transform="translate(0,32)">
</g>
<g
   id="Layer_15"
   transform="translate(0,32)">
</g>
<g
   id="Layer_16"
   transform="translate(0,32)">
</g>
<g
   id="Layer_17"
   transform="translate(0,32)">
</g>
<g
   id="Layer_18"
   transform="translate(0,32)">
</g>
<g
   id="Layer_19"
   transform="translate(0,32)">
</g>
<g
   id="Layer_20"
   transform="translate(0,32)">
</g>
<g
   id="Layer_21"
   transform="translate(0,32)">
</g>
<g
   id="Layer_22"
   transform="translate(0,32)">
</g>
<g
   id="Layer_23"
   transform="translate(0,32)">
</g>
<g
   id="Layer_24"
   transform="translate(0,32)">
</g>
<g
   id="Layer_25"
   transform="translate(0,32)">
</g>
<g
   id="Layer_26"
   transform="translate(0,32)">
</g>
<g
   id="Layer_27"
   transform="translate(0,32)">
</g>
<g
   id="Layer_28"
   transform="translate(0,32)">
</g>
<g
   id="Layer_29"
   transform="translate(0,32)">
</g>
<g
   id="Layer_30"
   transform="translate(0,32)">
</g>
<g
   id="Layer_31"
   transform="translate(0,32)">
</g>
<g
   id="Layer_32"
   transform="translate(0,32)">
</g>
<g
   id="Layer_33"
   transform="translate(0,32)">
</g>
<g
   id="Layer_34"
   transform="translate(0,32)">
</g>
<g
   id="Layer_35"
   transform="translate(0,32)">
</g>
<circle
   d="M 31,16 C 31,24.284271 24.284271,31 16,31 7.7157288,31 1,24.284271 1,16 1,7.7157288 7.7157288,1 16,1 24.284271,1 31,7.7157288 31,16 z"
   cx="16"
   cy="16"
   r="15"
   id="circle42"
   sodipodi:cx="16"
   sodipodi:cy="16"
   sodipodi:rx="15"
   sodipodi:ry="15"
   style="fill:#007500;stroke:#ffffff;stroke-width:1.52007592;stroke-miterlimit:4;stroke-opacity:1;stroke-dasharray:none"
   transform="matrix(2.0007358,0,0,1.9468039,0.19175786,1.3187539)" />
<g
   id="Layer_37"
   transform="translate(0,32)">
</g>
<g
   id="Layer_38"
   transform="translate(0,32)">
</g>
<g
   id="Layer_39"
   transform="translate(0,32)">
</g>
<g
   id="Layer_40"
   transform="translate(0,32)">
</g>
<g
   id="Layer_41"
   transform="translate(0,32)">
</g>
<g
   id="Layer_42"
   transform="translate(0,32)">
</g>
<g
   id="Layer_43"
   transform="translate(0,32)">
</g>
<g
   id="Layer_44"
   transform="translate(0,32)">
</g>
<g
   id="Layer_45"
   transform="translate(0,32)">
</g>
<g
   id="Layer_46"
   transform="translate(0,32)">
</g>
<g
   id="Layer_47"
   transform="translate(0,32)">
</g>
<g
   id="Layer_48"
   transform="translate(0,32)">
</g>
<g
   id="Layer_49"
   transform="translate(0,32)">
</g>
<g
   id="Layer_50"
   transform="translate(0,32)">
</g>
<g
   id="Layer_51"
   transform="translate(0,32)">
</g>
<g
   id="Layer_52"
   transform="translate(0,32)">
</g>
<g
   id="Layer_53"
   transform="translate(0,32)">
</g>
<g
   id="Layer_54"
   transform="translate(0,32)">
</g>
<g
   id="Layer_55"
   transform="translate(0,32)">
</g>
<g
   id="Layer_56"
   transform="translate(0,32)">
</g>
<g
   id="Layer_57"
   transform="translate(0,32)">
</g>
<g
   id="Layer_58"
   transform="translate(0,32)">
</g>
<g
   id="Layer_59"
   transform="translate(0,32)">
</g>
<g
   id="Layer_60"
   transform="translate(0,32)">
</g>
<g
   id="Layer_61"
   transform="translate(0,32)">
</g>
</svg>