<?xml version="1.0" encoding="UTF-8" standalone="no"?>
<!-- Created with Inkscape (http://www.inkscape.org/) -->

<svg
   xmlns:dc="http://purl.org/dc/elements/1.1/"
   xmlns:cc="http://creativecommons.org/ns#"
   xmlns:rdf="http://www.w3.org/1999/02/22-rdf-syntax-ns#"
   xmlns:svg="http://www.w3.org/2000/svg"
   xmlns="http://www.w3.org/2000/svg"
   xmlns:sodipodi="http://sodipodi.sourceforge.net/DTD/sodipodi-0.dtd"
   xmlns:inkscape="http://www.inkscape.org/namespaces/inkscape"
   id="svg3212"
   height="64px"
   width="64px"
   version="1.1"
   inkscape:version="0.48.5 r10040"
   sodipodi:docname="operations.svg">
  <defs
     id="defs13" />
  <sodipodi:namedview
     pagecolor="#ffffff"
     bordercolor="#666666"
     borderopacity="1"
     objecttolerance="10"
     gridtolerance="10"
     guidetolerance="10"
     inkscape:pageopacity="0"
     inkscape:pageshadow="2"
     inkscape:window-width="1759"
     inkscape:window-height="1058"
     id="namedview11"
     showgrid="false"
     inkscape:zoom="7.375"
     inkscape:cx="35.8746"
     inkscape:cy="19.034788"
     inkscape:window-x="1519"
     inkscape:window-y="-8"
     inkscape:window-maximized="1"
     inkscape:current-layer="layer1" />
  <metadata
     id="metadata3217">
    <rdf:RDF>
      <cc:Work
         rdf:about="">
        <dc:format>image/svg+xml</dc:format>
        <dc:type
           rdf:resource="http://purl.org/dc/dcmitype/StillImage" />
        <dc:title />
      </cc:Work>
    </rdf:RDF>
  </metadata>
  <g
     id="layer1">
    <g
       style="fill-rule:nonzero"
       id="g7619">
      <path
         style="fill:#000000"
         inkscape:connector-curvature="0"
         transform="matrix(0.95652175,0,0,0.95652175,98.000001,5.4782612)"
         d="m -37.636,27.727 c 0,17.02 -14.042,30.818 -31.364,30.818 -17.322,0 -31.364,-13.798 -31.364,-30.818 0,-17.02 14.042,-30.818 31.364,-30.818 17.322,0 31.364,13.798 31.364,30.818 z"
         id="path7599" />
      <path
         style="fill:#ffffff"
         inkscape:connector-curvature="0"
         transform="matrix(0.84492755,0,0,0.84492755,90.300001,8.572464)"
         d="m -37.636,27.727 c 0,17.02 -14.042,30.818 -31.364,30.818 -17.322,0 -31.364,-13.798 -31.364,-30.818 0,-17.02 14.042,-30.818 31.364,-30.818 17.322,0 31.364,13.798 31.364,30.818 z"
         id="path7599-5" />
    </g>
  </g>
</svg>
